<?xml version="1.0" encoding="utf-8"?>
<!-- Generator: Adobe Illustrator 17.0.0, SVG Export Plug-In . SVG Version: 6.00 Build 0)  -->
<!DOCTYPE svg PUBLIC "-//W3C//DTD SVG 1.1//EN" "http://www.w3.org/Graphics/SVG/1.1/DTD/svg11.dtd">
<svg version="1.1" id="Capa_1" xmlns="http://www.w3.org/2000/svg" xmlns:xlink="http://www.w3.org/1999/xlink" x="0px" y="0px"
	 width="400px" height="150px" viewBox="0 0 400 150" enable-background="new 0 0 400 150" xml:space="preserve">
<g>
	<path fill="#3D3D3B" d="M208.332,141.593v0.367h-5.775v-0.367h0.477c0.556,0,0.96-0.163,1.212-0.487
		c0.161-0.212,0.239-0.723,0.239-1.53v-8.705c0-0.682-0.043-1.133-0.129-1.352c-0.066-0.164-0.202-0.307-0.406-0.427
		c-0.292-0.159-0.596-0.239-0.914-0.239h-0.477v-0.367h5.775v0.367h-0.488c-0.549,0-0.951,0.163-1.201,0.487
		c-0.165,0.212-0.249,0.723-0.249,1.53v8.705c0,0.682,0.043,1.133,0.129,1.351c0.066,0.166,0.205,0.308,0.417,0.428
		c0.286,0.159,0.586,0.239,0.905,0.239L208.332,141.593L208.332,141.593z"/>
	<path fill="#3D3D3B" d="M212.594,127.829v12.073c0,0.57,0.042,0.948,0.125,1.133c0.082,0.185,0.21,0.327,0.382,0.422
		c0.172,0.097,0.493,0.145,0.963,0.145v0.357h-4.462v-0.357c0.418,0,0.703-0.043,0.856-0.129c0.153-0.086,0.272-0.229,0.357-0.428
		c0.085-0.199,0.129-0.58,0.129-1.143v-8.267c0-1.026-0.024-1.658-0.07-1.894c-0.046-0.235-0.12-0.395-0.223-0.482
		c-0.102-0.086-0.234-0.129-0.392-0.129c-0.172,0-0.392,0.054-0.657,0.159l-0.168-0.348l2.714-1.113H212.594z"/>
	<path fill="#3D3D3B" d="M223.097,132.856v5.515c0,1.053,0.025,1.699,0.074,1.933c0.051,0.236,0.129,0.399,0.239,0.492
		c0.109,0.092,0.237,0.139,0.383,0.139c0.205,0,0.438-0.057,0.695-0.17l0.139,0.349l-2.723,1.122h-0.447v-1.928
		c-0.781,0.849-1.378,1.381-1.789,1.601c-0.411,0.218-0.844,0.327-1.301,0.327c-0.511,0-0.953-0.147-1.327-0.442
		c-0.375-0.294-0.634-0.674-0.78-1.137s-0.218-1.119-0.218-1.968v-4.063c0-0.431-0.046-0.729-0.139-0.895s-0.23-0.293-0.412-0.383
		s-0.512-0.13-0.989-0.124v-0.368h3.191v6.092c0,0.848,0.147,1.405,0.442,1.67c0.295,0.264,0.65,0.397,1.068,0.397
		c0.284,0,0.607-0.09,0.969-0.268c0.36-0.179,0.789-0.52,1.287-1.023v-5.157c0-0.518-0.094-0.866-0.283-1.05
		c-0.189-0.182-0.582-0.28-1.178-0.293v-0.368L223.097,132.856L223.097,132.856z"/>
	<path fill="#3D3D3B" d="M227.997,134.527c0.662-0.662,1.053-1.044,1.172-1.143c0.3-0.253,0.621-0.447,0.964-0.586
		c0.344-0.139,0.685-0.209,1.023-0.209c0.57,0,1.06,0.165,1.471,0.496c0.411,0.331,0.685,0.812,0.824,1.441
		c0.683-0.795,1.259-1.317,1.729-1.566c0.47-0.248,0.955-0.372,1.452-0.372c0.484,0,0.912,0.124,1.287,0.372
		c0.374,0.249,0.671,0.655,0.89,1.218c0.145,0.384,0.218,0.987,0.218,1.808v3.915c0,0.57,0.043,0.96,0.128,1.172
		c0.067,0.146,0.19,0.271,0.368,0.373c0.179,0.103,0.469,0.155,0.874,0.155v0.357h-4.491v-0.357h0.189
		c0.392,0,0.696-0.076,0.914-0.229c0.153-0.107,0.26-0.275,0.328-0.506c0.026-0.113,0.039-0.435,0.039-0.963v-3.915
		c0-0.741-0.089-1.265-0.267-1.57c-0.258-0.423-0.674-0.634-1.242-0.634c-0.351,0-0.704,0.086-1.058,0.262
		c-0.355,0.176-0.784,0.503-1.287,0.979l-0.02,0.11l0.02,0.428v4.342c0,0.623,0.035,1.009,0.104,1.162s0.201,0.281,0.393,0.383
		c0.192,0.103,0.52,0.155,0.984,0.155v0.357h-4.601v-0.357c0.503,0,0.85-0.061,1.04-0.179c0.188-0.119,0.319-0.299,0.392-0.538
		c0.033-0.113,0.049-0.441,0.049-0.984v-3.915c0-0.741-0.109-1.274-0.327-1.6c-0.292-0.423-0.7-0.635-1.223-0.635
		c-0.357,0-0.713,0.097-1.063,0.289c-0.549,0.292-0.973,0.62-1.272,0.984v4.88c0,0.596,0.042,0.984,0.124,1.162
		c0.083,0.179,0.207,0.313,0.368,0.402c0.163,0.09,0.492,0.135,0.989,0.135v0.357h-4.502v-0.357c0.418,0,0.708-0.045,0.875-0.135
		c0.165-0.089,0.292-0.231,0.377-0.427c0.085-0.196,0.129-0.575,0.129-1.139v-3.478c0-1-0.029-1.646-0.09-1.938
		c-0.046-0.218-0.118-0.369-0.218-0.451c-0.1-0.083-0.236-0.125-0.408-0.125c-0.185,0-0.406,0.049-0.666,0.149l-0.149-0.357
		l2.743-1.113h0.427L227.997,134.527L227.997,134.527z"/>
	<path fill="#3D3D3B" d="M244.264,132.589v7.314c0,0.57,0.04,0.949,0.124,1.139c0.082,0.189,0.205,0.329,0.367,0.422
		c0.164,0.093,0.459,0.139,0.889,0.139v0.357h-4.422v-0.357c0.445,0,0.742-0.043,0.896-0.129c0.152-0.086,0.273-0.229,0.362-0.428
		c0.089-0.199,0.135-0.58,0.135-1.143v-3.508c0-0.988-0.029-1.626-0.09-1.918c-0.047-0.212-0.119-0.359-0.219-0.442
		c-0.099-0.083-0.235-0.125-0.406-0.125c-0.185,0-0.411,0.049-0.677,0.149l-0.139-0.357l2.743-1.113h0.438V132.589z
		 M243.439,127.829c0.277,0,0.514,0.098,0.711,0.293c0.194,0.196,0.293,0.432,0.293,0.711s-0.099,0.518-0.293,0.715
		c-0.196,0.2-0.433,0.3-0.711,0.3c-0.278,0-0.518-0.1-0.716-0.3c-0.199-0.198-0.299-0.437-0.299-0.715s0.098-0.514,0.294-0.711
		C242.915,127.927,243.155,127.829,243.439,127.829"/>
	<path fill="#3D3D3B" d="M249.43,134.517c1.067-1.286,2.083-1.928,3.052-1.928c0.496,0,0.923,0.124,1.282,0.373
		c0.357,0.248,0.641,0.657,0.854,1.227c0.146,0.397,0.218,1.006,0.218,1.829v3.885c0,0.576,0.047,0.967,0.139,1.172
		c0.073,0.165,0.191,0.295,0.353,0.389s0.461,0.139,0.899,0.139v0.357h-4.501v-0.357h0.189c0.424,0,0.721-0.065,0.889-0.194
		c0.168-0.129,0.287-0.319,0.353-0.572c0.026-0.1,0.039-0.411,0.039-0.934v-3.727c0-0.827-0.108-1.428-0.323-1.803
		c-0.214-0.374-0.578-0.56-1.088-0.56c-0.788,0-1.573,0.43-2.356,1.291v4.799c0,0.616,0.036,0.997,0.11,1.143
		c0.093,0.192,0.22,0.333,0.383,0.422c0.163,0.09,0.492,0.135,0.989,0.135v0.357h-4.502v-0.357h0.2c0.463,0,0.776-0.118,0.939-0.353
		c0.163-0.236,0.244-0.684,0.244-1.346v-3.379c0-1.094-0.025-1.758-0.074-1.997c-0.049-0.238-0.126-0.4-0.229-0.487
		c-0.102-0.085-0.24-0.129-0.411-0.129c-0.186,0-0.408,0.051-0.667,0.149l-0.149-0.357l2.743-1.113h0.427L249.43,134.517
		L249.43,134.517z"/>
	<path fill="#3D3D3B" d="M262.11,140.648c-0.934,0.722-1.52,1.14-1.758,1.252c-0.357,0.164-0.739,0.248-1.143,0.248
		c-0.63,0-1.148-0.214-1.556-0.646c-0.406-0.431-0.611-0.997-0.611-1.7c0-0.443,0.1-0.827,0.299-1.152
		c0.272-0.45,0.743-0.874,1.416-1.272c0.673-0.397,1.791-0.88,3.354-1.451v-0.357c0-0.908-0.144-1.53-0.432-1.868
		c-0.289-0.338-0.707-0.506-1.256-0.506c-0.418,0-0.75,0.113-0.995,0.338c-0.253,0.225-0.377,0.484-0.377,0.775l0.02,0.576
		c0,0.304-0.077,0.54-0.234,0.706c-0.156,0.166-0.359,0.248-0.611,0.248c-0.246,0-0.446-0.085-0.602-0.257
		c-0.156-0.173-0.234-0.408-0.234-0.706c0-0.569,0.292-1.092,0.875-1.569c0.583-0.478,1.401-0.716,2.454-0.716
		c0.808,0,1.471,0.136,1.988,0.408c0.391,0.205,0.678,0.527,0.865,0.962c0.119,0.286,0.179,0.868,0.179,1.749v3.091
		c0,0.868,0.018,1.399,0.051,1.595c0.033,0.195,0.088,0.326,0.164,0.393c0.075,0.066,0.164,0.099,0.263,0.099
		c0.107,0,0.2-0.024,0.278-0.07c0.139-0.086,0.406-0.328,0.805-0.725v0.557c-0.741,0.994-1.451,1.49-2.127,1.49
		c-0.324,0-0.584-0.113-0.775-0.338C262.219,141.578,262.117,141.191,262.11,140.648 M262.11,140.003v-3.468
		c-1,0.397-1.646,0.678-1.938,0.844c-0.524,0.292-0.898,0.596-1.123,0.914c-0.226,0.318-0.338,0.666-0.338,1.043
		c0,0.477,0.141,0.872,0.428,1.188c0.284,0.316,0.612,0.473,0.984,0.473C260.627,140.995,261.289,140.664,262.11,140.003"/>
	<path fill="#3D3D3B" d="M273.716,138.502c-0.245,1.199-0.725,2.122-1.441,2.768c-0.715,0.646-1.507,0.969-2.375,0.969
		c-1.033,0-1.935-0.435-2.703-1.301c-0.769-0.868-1.152-2.04-1.152-3.519c0-1.43,0.426-2.594,1.278-3.487
		c0.851-0.894,1.873-1.341,3.065-1.341c0.894,0,1.628,0.237,2.205,0.711c0.577,0.474,0.866,0.966,0.866,1.475
		c0,0.251-0.081,0.455-0.244,0.611c-0.164,0.156-0.39,0.234-0.68,0.234c-0.392,0-0.685-0.126-0.884-0.377
		c-0.115-0.139-0.188-0.404-0.225-0.795c-0.036-0.392-0.17-0.689-0.402-0.895c-0.231-0.199-0.552-0.299-0.963-0.299
		c-0.662,0-1.195,0.245-1.6,0.735c-0.537,0.649-0.805,1.507-0.805,2.573c0,1.087,0.266,2.046,0.801,2.877
		c0.533,0.832,1.253,1.247,2.161,1.247c0.649,0,1.233-0.221,1.749-0.666c0.364-0.304,0.719-0.859,1.063-1.661L273.716,138.502z"/>
	<path fill="#3D3D3B" d="M278.158,132.589v7.314c0,0.57,0.042,0.949,0.125,1.139c0.082,0.189,0.204,0.329,0.367,0.422
		c0.163,0.093,0.458,0.139,0.889,0.139v0.357h-4.422v-0.357c0.445,0,0.742-0.043,0.895-0.129c0.153-0.086,0.273-0.229,0.362-0.428
		c0.09-0.199,0.135-0.58,0.135-1.143v-3.508c0-0.988-0.029-1.626-0.09-1.918c-0.046-0.212-0.118-0.359-0.218-0.442
		c-0.1-0.083-0.235-0.125-0.408-0.125c-0.185,0-0.41,0.049-0.676,0.149l-0.139-0.357l2.743-1.113h0.437V132.589z M277.334,127.829
		c0.278,0,0.515,0.098,0.711,0.293c0.195,0.196,0.294,0.432,0.294,0.711s-0.099,0.518-0.294,0.715c-0.195,0.2-0.432,0.3-0.711,0.3
		c-0.278,0-0.516-0.1-0.715-0.3c-0.2-0.198-0.3-0.437-0.3-0.715s0.099-0.514,0.294-0.711
		C276.809,127.927,277.05,127.829,277.334,127.829"/>
	<path fill="#3D3D3B" d="M285.124,132.589c1.379,0,2.485,0.523,3.319,1.57c0.708,0.894,1.063,1.921,1.063,3.08
		c0,0.815-0.195,1.639-0.586,2.475c-0.392,0.834-0.93,1.464-1.615,1.889c-0.685,0.423-1.45,0.636-2.291,0.636
		c-1.371,0-2.46-0.547-3.268-1.64c-0.682-0.92-1.024-1.954-1.024-3.1c0-0.835,0.208-1.664,0.622-2.489
		c0.414-0.825,0.959-1.434,1.635-1.829C283.654,132.787,284.371,132.589,285.124,132.589 M284.816,133.235
		c-0.35,0-0.704,0.104-1.058,0.312c-0.354,0.21-0.64,0.575-0.86,1.099c-0.218,0.523-0.328,1.195-0.328,2.017
		c0,1.326,0.263,2.468,0.79,3.429c0.527,0.96,1.22,1.441,2.082,1.441c0.642,0,1.172-0.264,1.59-0.795
		c0.418-0.53,0.627-1.441,0.627-2.733c0-1.616-0.348-2.888-1.044-3.815C286.146,133.552,285.545,133.235,284.816,133.235
		 M287.221,128.147l-2.93,3.429h-0.338l1.043-3.429H287.221z"/>
	<path fill="#3D3D3B" d="M293.501,134.517c1.067-1.286,2.083-1.928,3.051-1.928c0.497,0,0.924,0.124,1.282,0.373
		c0.358,0.248,0.642,0.657,0.856,1.227c0.146,0.397,0.218,1.006,0.218,1.829v3.885c0,0.576,0.046,0.967,0.139,1.172
		c0.072,0.165,0.191,0.295,0.353,0.389s0.461,0.139,0.899,0.139v0.357h-4.502v-0.357h0.19c0.423,0,0.721-0.065,0.889-0.194
		c0.168-0.129,0.286-0.319,0.353-0.572c0.025-0.1,0.039-0.411,0.039-0.934v-3.727c0-0.827-0.108-1.428-0.323-1.803
		c-0.214-0.374-0.578-0.56-1.088-0.56c-0.788,0-1.573,0.43-2.356,1.291v4.799c0,0.616,0.036,0.997,0.11,1.143
		c0.092,0.192,0.219,0.333,0.383,0.422c0.163,0.09,0.492,0.135,0.988,0.135v0.357h-4.501v-0.357h0.199
		c0.464,0,0.777-0.118,0.94-0.353c0.163-0.236,0.244-0.684,0.244-1.346v-3.379c0-1.094-0.025-1.758-0.074-1.997
		c-0.051-0.238-0.126-0.4-0.229-0.487c-0.102-0.085-0.24-0.129-0.412-0.129c-0.185,0-0.406,0.051-0.666,0.149l-0.149-0.357
		l2.742-1.113h0.428V134.517z"/>
	<path fill="#3D3D3B" d="M319.228,141.96h-3.597l-4.561-6.3c-0.338,0.013-0.612,0.02-0.824,0.02c-0.085,0-0.177-0.001-0.277-0.004
		c-0.1-0.003-0.203-0.009-0.308-0.016v3.915c0,0.848,0.092,1.374,0.278,1.58c0.251,0.292,0.63,0.438,1.132,0.438h0.528v0.367h-5.775
		v-0.367h0.508c0.57,0,0.977-0.185,1.222-0.557c0.139-0.205,0.21-0.692,0.21-1.461v-8.705c0-0.848-0.093-1.375-0.278-1.58
		c-0.258-0.292-0.642-0.438-1.152-0.438h-0.508v-0.367h4.909c1.43,0,2.487,0.104,3.165,0.312c0.678,0.21,1.255,0.593,1.729,1.153
		c0.474,0.559,0.711,1.227,0.711,2.002c0,0.827-0.269,1.547-0.811,2.156c-0.539,0.61-1.377,1.041-2.508,1.292l2.782,3.865
		c0.637,0.888,1.183,1.476,1.64,1.768c0.457,0.292,1.053,0.477,1.789,0.557v0.369H319.228z M309.659,135.033
		c0.125,0,0.235,0.002,0.327,0.006c0.093,0.003,0.17,0.006,0.229,0.006c1.286,0,2.255-0.278,2.907-0.835
		c0.652-0.556,0.978-1.265,0.978-2.127c0-0.841-0.262-1.526-0.789-2.052c-0.527-0.527-1.224-0.789-2.092-0.789
		c-0.384,0-0.904,0.063-1.56,0.189L309.659,135.033L309.659,135.033z"/>
	<path fill="#3D3D3B" d="M321.216,136.285c-0.007,1.351,0.321,2.411,0.984,3.18c0.662,0.769,1.441,1.153,2.334,1.153
		c0.597,0,1.115-0.164,1.556-0.492c0.441-0.328,0.811-0.889,1.107-1.684l0.309,0.199c-0.139,0.907-0.543,1.735-1.213,2.479
		c-0.67,0.746-1.508,1.117-2.514,1.117c-1.094,0-2.029-0.426-2.807-1.277c-0.778-0.851-1.168-1.995-1.168-3.434
		c0-1.557,0.397-2.771,1.197-3.641c0.798-0.871,1.8-1.307,3.006-1.307c1.019,0,1.858,0.336,2.514,1.008s0.985,1.571,0.985,2.697
		h-6.29V136.285z M321.216,135.708h4.213c-0.033-0.583-0.103-0.994-0.209-1.233c-0.165-0.369-0.412-0.661-0.74-0.874
		c-0.328-0.211-0.671-0.318-1.028-0.318c-0.55,0-1.043,0.213-1.475,0.641C321.542,134.352,321.288,134.948,321.216,135.708"/>
	<path fill="#3D3D3B" d="M334.601,132.589v3.1h-0.328c-0.253-0.973-0.575-1.636-0.969-1.987c-0.394-0.35-0.896-0.527-1.506-0.527
		c-0.464,0-0.838,0.121-1.123,0.367c-0.285,0.246-0.428,0.516-0.428,0.815c0,0.371,0.107,0.688,0.318,0.954
		c0.207,0.272,0.623,0.56,1.252,0.865l1.451,0.706c1.345,0.656,2.018,1.52,2.018,2.594c0,0.829-0.312,1.496-0.939,2.002
		c-0.627,0.507-1.327,0.76-2.102,0.76c-0.557,0-1.192-0.099-1.908-0.298c-0.219-0.066-0.397-0.1-0.537-0.1
		c-0.154,0-0.272,0.086-0.358,0.258h-0.328v-3.25h0.328c0.186,0.927,0.54,1.627,1.063,2.096c0.523,0.472,1.109,0.706,1.758,0.706
		c0.457,0,0.83-0.134,1.118-0.402c0.287-0.268,0.432-0.591,0.432-0.969c0-0.457-0.161-0.841-0.483-1.152
		c-0.321-0.311-0.962-0.705-1.922-1.182c-0.96-0.477-1.59-0.908-1.889-1.292c-0.299-0.377-0.447-0.854-0.447-1.43
		c0-0.748,0.257-1.374,0.77-1.877c0.513-0.504,1.178-0.756,1.992-0.756c0.358,0,0.792,0.075,1.302,0.229
		c0.338,0.099,0.563,0.148,0.676,0.148c0.107,0,0.189-0.024,0.248-0.07c0.061-0.046,0.129-0.149,0.21-0.308h0.328V132.589z"/>
	<path fill="#3D3D3B" d="M339.777,132.589v7.314c0,0.57,0.042,0.949,0.125,1.139c0.082,0.189,0.205,0.329,0.367,0.422
		c0.162,0.093,0.458,0.139,0.889,0.139v0.357h-4.422v-0.357c0.445,0,0.742-0.043,0.896-0.129c0.152-0.086,0.272-0.229,0.362-0.428
		c0.089-0.199,0.134-0.58,0.134-1.143v-3.508c0-0.988-0.029-1.626-0.089-1.918c-0.047-0.212-0.119-0.359-0.219-0.442
		c-0.099-0.083-0.235-0.125-0.406-0.125c-0.185,0-0.411,0.049-0.677,0.149l-0.139-0.357l2.743-1.113h0.437V132.589z
		 M338.953,127.829c0.278,0,0.515,0.098,0.712,0.293c0.194,0.196,0.293,0.432,0.293,0.711s-0.099,0.518-0.293,0.715
		c-0.197,0.2-0.433,0.3-0.712,0.3c-0.277,0-0.516-0.1-0.715-0.3c-0.199-0.198-0.299-0.437-0.299-0.715s0.098-0.514,0.294-0.711
		C338.429,127.927,338.669,127.829,338.953,127.829"/>
	<path fill="#3D3D3B" d="M348.722,140.937c-0.445,0.463-0.878,0.796-1.301,0.998c-0.424,0.202-0.881,0.303-1.372,0.303
		c-0.994,0-1.862-0.414-2.603-1.246c-0.742-0.831-1.113-1.899-1.113-3.204s0.41-2.5,1.232-3.583
		c0.821-1.082,1.878-1.624,3.171-1.624c0.801,0,1.464,0.255,1.987,0.766v-1.68c0-1.041-0.024-1.68-0.074-1.918
		c-0.049-0.238-0.127-0.401-0.234-0.487c-0.106-0.086-0.238-0.129-0.397-0.129c-0.173,0-0.401,0.054-0.686,0.159l-0.129-0.348
		l2.714-1.113h0.446v10.523c0,1.067,0.025,1.718,0.074,1.953s0.129,0.399,0.239,0.492c0.109,0.092,0.237,0.139,0.383,0.139
		c0.178,0,0.417-0.057,0.715-0.168l0.11,0.348l-2.703,1.122h-0.457v-1.302H348.722z M348.722,140.24v-4.69
		c-0.039-0.45-0.159-0.862-0.357-1.233c-0.199-0.372-0.463-0.651-0.79-0.84s-0.648-0.283-0.959-0.283
		c-0.584,0-1.103,0.262-1.561,0.784c-0.603,0.689-0.905,1.697-0.905,3.021c0,1.337,0.292,2.362,0.875,3.075
		c0.583,0.712,1.233,1.068,1.947,1.068C347.576,141.145,348.158,140.844,348.722,140.24"/>
	<path fill="#3D3D3B" d="M353.998,136.285c-0.007,1.351,0.321,2.411,0.984,3.18c0.662,0.769,1.441,1.153,2.335,1.153
		c0.596,0,1.115-0.164,1.555-0.492c0.441-0.328,0.811-0.889,1.108-1.684l0.308,0.199c-0.139,0.907-0.543,1.735-1.213,2.479
		c-0.669,0.746-1.507,1.117-2.514,1.117c-1.094,0-2.029-0.426-2.807-1.277c-0.778-0.851-1.168-1.995-1.168-3.434
		c0-1.557,0.399-2.771,1.197-3.641c0.798-0.871,1.801-1.307,3.007-1.307c1.019,0,1.857,0.336,2.514,1.008
		c0.655,0.673,0.984,1.571,0.984,2.697h-6.29V136.285z M353.998,135.708h4.214c-0.033-0.583-0.103-0.994-0.21-1.233
		c-0.165-0.369-0.412-0.661-0.74-0.874c-0.328-0.211-0.671-0.318-1.028-0.318c-0.55,0-1.042,0.213-1.475,0.641
		C354.324,134.352,354.071,134.948,353.998,135.708"/>
	<path fill="#3D3D3B" d="M364.153,134.517c1.067-1.286,2.083-1.928,3.051-1.928c0.496,0,0.924,0.124,1.282,0.373
		c0.358,0.248,0.642,0.657,0.856,1.227c0.145,0.397,0.218,1.006,0.218,1.829v3.885c0,0.576,0.046,0.967,0.139,1.172
		c0.072,0.165,0.191,0.295,0.353,0.389c0.162,0.093,0.461,0.139,0.899,0.139v0.357h-4.501v-0.357h0.189
		c0.423,0,0.721-0.065,0.889-0.194c0.168-0.129,0.286-0.319,0.353-0.572c0.025-0.1,0.039-0.411,0.039-0.934v-3.727
		c0-0.827-0.108-1.428-0.323-1.803c-0.214-0.374-0.578-0.56-1.088-0.56c-0.788,0-1.573,0.43-2.356,1.291v4.799
		c0,0.616,0.036,0.997,0.11,1.143c0.092,0.192,0.219,0.333,0.383,0.422c0.163,0.09,0.492,0.135,0.988,0.135v0.357h-4.501v-0.357
		h0.199c0.464,0,0.777-0.118,0.94-0.353c0.163-0.236,0.244-0.684,0.244-1.346v-3.379c0-1.094-0.025-1.758-0.074-1.997
		c-0.049-0.238-0.126-0.4-0.229-0.487c-0.102-0.085-0.24-0.129-0.412-0.129c-0.185,0-0.406,0.051-0.666,0.149l-0.149-0.357
		l2.743-1.113h0.427V134.517z"/>
	<path fill="#3D3D3B" d="M379.407,138.502c-0.245,1.199-0.725,2.122-1.441,2.768c-0.715,0.646-1.507,0.969-2.375,0.969
		c-1.033,0-1.935-0.435-2.703-1.301c-0.769-0.868-1.152-2.04-1.152-3.519c0-1.43,0.426-2.594,1.278-3.487
		c0.851-0.894,1.873-1.341,3.064-1.341c0.895,0,1.629,0.237,2.206,0.711s0.866,0.966,0.866,1.475c0,0.251-0.081,0.455-0.244,0.611
		c-0.164,0.156-0.39,0.234-0.68,0.234c-0.392,0-0.685-0.126-0.884-0.377c-0.115-0.139-0.189-0.404-0.223-0.795
		c-0.037-0.392-0.171-0.689-0.403-0.895c-0.231-0.199-0.552-0.299-0.963-0.299c-0.662,0-1.195,0.245-1.6,0.735
		c-0.537,0.649-0.805,1.507-0.805,2.573c0,1.087,0.266,2.046,0.801,2.877c0.533,0.832,1.253,1.247,2.161,1.247
		c0.649,0,1.233-0.221,1.749-0.666c0.364-0.304,0.719-0.859,1.063-1.661L379.407,138.502z"/>
	<path fill="#3D3D3B" d="M383.849,132.589v7.314c0,0.57,0.042,0.949,0.125,1.139c0.082,0.189,0.206,0.329,0.367,0.422
		c0.162,0.093,0.458,0.139,0.889,0.139v0.357h-4.422v-0.357c0.445,0,0.742-0.043,0.895-0.129c0.153-0.086,0.273-0.229,0.363-0.428
		c0.089-0.199,0.134-0.58,0.134-1.143v-3.508c0-0.988-0.029-1.626-0.09-1.918c-0.046-0.212-0.118-0.359-0.218-0.442
		s-0.236-0.125-0.406-0.125c-0.185,0-0.411,0.049-0.677,0.149l-0.139-0.357l2.743-1.113h0.437V132.589z M383.024,127.829
		c0.278,0,0.515,0.098,0.711,0.293c0.195,0.196,0.293,0.432,0.293,0.711s-0.098,0.518-0.293,0.715c-0.195,0.2-0.432,0.3-0.711,0.3
		s-0.516-0.1-0.715-0.3c-0.2-0.198-0.299-0.437-0.299-0.715s0.098-0.514,0.293-0.711
		C382.499,127.927,382.739,127.829,383.024,127.829"/>
	<path fill="#3D3D3B" d="M391.521,140.648c-0.934,0.722-1.52,1.14-1.758,1.252c-0.358,0.164-0.739,0.248-1.144,0.248
		c-0.63,0-1.146-0.214-1.555-0.646c-0.409-0.431-0.611-0.997-0.611-1.7c0-0.443,0.099-0.827,0.299-1.152
		c0.271-0.45,0.743-0.874,1.416-1.272c0.673-0.397,1.791-0.88,3.354-1.451v-0.357c0-0.908-0.145-1.53-0.433-1.868
		c-0.287-0.338-0.707-0.506-1.256-0.506c-0.417,0-0.749,0.113-0.994,0.338c-0.253,0.225-0.378,0.484-0.378,0.775l0.02,0.576
		c0,0.304-0.076,0.54-0.234,0.706c-0.156,0.165-0.358,0.248-0.611,0.248c-0.245,0-0.445-0.085-0.601-0.257
		c-0.156-0.173-0.234-0.408-0.234-0.706c0-0.569,0.291-1.092,0.874-1.569c0.584-0.478,1.401-0.716,2.456-0.716
		c0.808,0,1.471,0.136,1.987,0.408c0.392,0.205,0.679,0.527,0.866,0.962c0.119,0.286,0.179,0.868,0.179,1.749v3.091
		c0,0.868,0.017,1.399,0.049,1.595c0.033,0.195,0.088,0.326,0.164,0.393c0.075,0.066,0.164,0.099,0.263,0.099
		c0.106,0,0.199-0.024,0.278-0.07c0.139-0.086,0.406-0.328,0.805-0.725v0.557c-0.742,0.994-1.451,1.49-2.128,1.49
		c-0.324,0-0.583-0.113-0.774-0.338C391.626,141.576,391.527,141.191,391.521,140.648 M391.521,140.003v-3.468
		c-1.002,0.397-1.647,0.678-1.938,0.844c-0.524,0.292-0.898,0.596-1.124,0.914c-0.225,0.318-0.338,0.666-0.338,1.043
		c0,0.477,0.143,0.872,0.428,1.188c0.285,0.316,0.613,0.473,0.984,0.473C390.036,140.995,390.699,140.664,391.521,140.003"/>
	<path fill="#3D3D3B" d="M398.526,127.829v12.073c0,0.57,0.04,0.948,0.123,1.133c0.083,0.185,0.211,0.327,0.383,0.422
		c0.172,0.097,0.493,0.145,0.963,0.145v0.357h-4.462v-0.357c0.418,0,0.702-0.043,0.854-0.129c0.153-0.086,0.272-0.229,0.358-0.428
		c0.085-0.199,0.128-0.58,0.128-1.143v-8.267c0-1.026-0.024-1.658-0.07-1.894c-0.046-0.235-0.12-0.395-0.223-0.482
		c-0.103-0.086-0.234-0.129-0.393-0.129c-0.172,0-0.391,0.054-0.656,0.159l-0.168-0.348l2.713-1.113H398.526z"/>
	<g>
		<path fill="#3D3D3B" d="M397.074,74.659c-4.93,2.9-9.522,6.632-14.779,8.652c-8.671,3.332-14.453,0.026-17.492-8.707
			c-0.405-1.169-0.98-2.278-1.697-3.92c-1.62,1.752-2.747,2.97-3.923,4.241c-3.021-6.143-13.531-7.58-17.946-2.604
			c-7.97,8.98-17.74,15.14-29.402,17.886c-3.695,0.87-7.858,0.921-11.588,0.207c-6.271-1.201-8.851-8.945-5.375-14.216
			c2.088-3.167,4.076-6.452,5.669-9.887c4.365-9.419,5.962-19.241,2.815-29.356c-0.614-1.973-2.54-3.537-3.86-5.29
			c-0.98,1.738-2.522,3.377-2.849,5.231c-1.835,10.389-3.638,20.801-4.868,31.273c-0.409,3.48-1.011,6.455-3.686,8.659
			c-4.985,4.108-9.676,8.809-15.24,11.922c-6.997,3.915-12.472,1.272-15.599-6.214c-0.751-1.801-1.148-3.749-1.8-5.597
			c-0.342-0.968-0.881-1.867-1.333-2.798c-1.017,0.558-2.161,0.967-3.03,1.701c-3.453,2.914-6.389,6.793-10.302,8.739
			c-10.695,5.321-15.334,3.306-21.373-3.345c-1.398-1.539-2.916-3.023-4.582-4.255c-3.825-2.831-6.322-2.398-8.954,1.534
			c-1.567,2.341-2.755,4.938-4.336,7.27c-1.988,2.928-3.313,2.923-5.157-0.066c-1.931-3.13-3.489-6.491-5.403-9.635
			c-3.144-5.163-5.693-5.155-8.805,0.029c-1.192,1.986-2.012,4.196-3.026,6.292c-0.374,0.772-0.817,1.51-1.758,3.234
			c-0.217-4.634-0.378-8.097-0.588-12.612c-1.841,1.427-2.953,2.143-3.888,3.044c-2.466,2.376-4.609,5.157-7.318,7.198
			c-10.058,7.574-20.187,4.542-24.745-7.183c-0.601-1.544-1.283-3.057-2.137-5.078c-1.483,1.855-2.566,3.207-3.756,4.694
			c-1.571-4.045-5.053-4.753-8.277-5.798c-4.001-1.296-7.256-0.692-10.082,2.939c-2.84,3.649-6.178,6.958-9.567,10.127
			c-11.174,10.448-24.778,11.352-36.494,2.495c-9.36-7.076-15.127-16.65-18.589-27.682c-0.347-1.105,0.161-2.988,0.969-3.871
			c13.083-14.31,27.514-27.052,44.198-37.067c1.965-1.18,4.228-1.995,6.457-2.573c3.151-0.819,5.334,0.548,5.935,3.8
			c0.305,1.656,0.505,3.483,0.131,5.087c-1.169,5.001-2.689,9.919-3.955,14.9c-0.46,1.811-0.588,3.707-0.867,5.566
			c0.38,0.048,0.761,0.097,1.142,0.146c3.914-9.708,6.728-19.679,6.061-30.314c-0.299-4.755-3.404-6.755-8.022-5.15
			c-3.099,1.076-6.097,2.646-8.872,4.415c-17.103,10.896-32.361,23.99-45.966,39.018c-0.741,0.819-1.493,1.626-2.24,2.438
			c-0.455-0.203-0.911-0.406-1.364-0.609c2.915-13.42,5.831-26.838,8.987-41.365c-2.014,2.15-3.353,3.507-4.61,4.935
			c-7.671,8.706-15.684,17.132-26.107,22.493c-4.456,2.293-9.612,3.568-14.6,4.378c-3.892,0.632-6.452-2.252-5.793-6.162
			c0.6-3.555,2.171-6.958,3.445-10.379c0.53-1.423,1.401-2.718,2.116-4.072c-1.644,0.742-2.84,1.816-3.45,3.156
			C3.582,30.865,1.832,35.277,0,39.65v3.69c2.993,6.027,4.725,6.934,11.619,5.962c10.228-1.443,18.12-7.259,25.372-14.002
			c4.551-4.232,8.64-8.96,13.353-13.903c-0.258,1.327-0.43,2.192-0.594,3.057c-1.941,10.23-3.807,20.477-5.88,30.681
			c-0.444,2.18-1.286,4.452-2.542,6.266c-5.229,7.546-9.795,15.433-10.902,24.669c-1.598,13.328,2.71,24.57,13.118,33.287h2.214
			c0.351-4.691,1.1-9.391,0.979-14.069c-0.344-13.127-1.188-26.242-1.474-39.369c-0.051-2.303,1.644-4.644,2.533-6.967
			c0.419,0.112,0.838,0.223,1.256,0.336c0.38,1.118,0.769,2.231,1.136,3.353c3.233,9.871,8.479,18.468,16.04,25.646
			c14.58,13.841,31.454,13.122,44.773-1.954c1.196-1.353,2.406-2.695,3.811-4.269c0.467,1.779,0.743,3.207,1.216,4.568
			c1.841,5.3,6.737,7.202,11.509,4.321c1.758-1.062,3.393-2.49,4.73-4.053c2.186-2.554,4.083-5.357,6.289-8.305
			c3.272,7.791,7.075,14.799,16.587,14.859c8.829,0.056,14.431-5.738,19.914-12.438c0.609,4.993,1.142,9.379,1.676,13.763
			c0.367,0.024,0.733,0.048,1.1,0.072c0.478-1.207,0.982-2.405,1.429-3.623c1.013-2.761,1.738-5.669,3.091-8.248
			c0.835-1.593,2.459-3.428,4.019-3.749c1.006-0.207,2.845,1.935,3.766,3.371c1.848,2.884,3.165,6.109,4.992,9.009
			c2.466,3.914,4.641,3.921,7.22,0.156c1.454-2.121,2.619-4.437,4.013-6.602c2.624-4.071,4.57-4.455,8.346-1.304
			c2.631,2.195,4.682,5.173,7.501,7.028c2.419,1.592,5.57,2.934,8.378,2.896c6.476-0.086,12.016-3.069,16.777-7.473
			c1.951-1.805,4.043-3.459,5.858-5c1.08,2.924,2.06,6.626,3.766,9.958c2.847,5.559,7.462,7.44,13.267,5.106
			c3.917-1.573,7.67-3.873,11.014-6.471c3.326-2.585,6.049-5.945,9.435-9.371c0.355,2.532,0.586,4.441,0.895,6.338
			c1.35,8.326,7.086,12.353,15.359,10.609c10.883-2.294,20.693-6.859,29.114-14.233c0.592-0.518,1.283-0.923,2.268-1.622
			c0.131,1.179,0.212,1.876,0.289,2.575c0.568,5.241,3.413,7.415,8.304,5.439c3.438-1.39,6.462-3.884,9.522-6.089
			c2.23-1.607,4.222-3.547,6.312-5.333c0.065,0.174,0.277,0.723,0.476,1.275c3.228,8.962,8.265,11.995,17.347,9.381
			c7.936-2.283,15.499-5.608,19.409-13.796V73.6C399.019,73.942,397.953,74.141,397.074,74.659 M300.775,37.909
			c4.411,6.657,1.034,22.719-6.518,31.987C292.969,64.2,297.531,41.279,300.775,37.909 M44.022,110.378
			c-0.723,3.402-2.275,3.951-4.691,1.471c-4.564-4.687-6.622-10.564-6.874-16.964c-0.408-10.401,4.069-19.156,9.64-27.464
			c0.485,0.052,0.97,0.104,1.455,0.156c0,7.549-0.097,15.098,0.033,22.644c0.092,5.384,0.521,10.76,0.729,16.143
			C44.366,107.696,44.298,109.075,44.022,110.378 M123.881,85.805c-3.039,1.234-6.403-1.37-6.702-4.44
			c-0.31-3.195,1.866-5.866,5.313-5.526c3.417,0.336,6.741,1.609,10.106,2.47c0.125,0.677,0.249,1.353,0.374,2.03
			C129.96,82.202,127.118,84.491,123.881,85.805 M347.055,84.169c-2.62,1.087-5.196,0.427-6.166-2.692
			c-0.787-2.533,1.04-5.365,3.965-6.093c4.155-1.034,7.837,0.391,11.328,2.403c0.119,0.449,0.239,0.899,0.358,1.348
			C353.389,80.839,350.346,82.804,347.055,84.169"/>
		<circle fill="#3D3D3B" cx="254.872" cy="58.348" r="3.628"/>
	</g>
</g>
</svg>
